<svg version="1.1" xmlns="http://www.w3.org/2000/svg" viewBox="0 0 250 250"><desc>Created with Snap</desc><defs></defs><g transform="matrix(0.0514,0,0,0.0514,80.6129,166.3332)"><rect x="-835.5840599060059" y="-3234.8161254882807" width="3397.632177734375" height="4861.952148437499" fill="#c4d7f2" style=""></rect><g transform="matrix(12.0944,0,0,12.0944,-684.245,-3490.0052)">
<g>
	<path d="M84.5,82.1c9,0,16.4-6.7,17.6-15.4h30.4l13,18.8c0.5,0.7,1.2,1,2,1h73.7c1.3,0,2.4-1.1,2.4-2.4s-1.1-2.4-2.4-2.4h-72.5
		l-13-18.8c-0.5-0.7-1.2-1-2-1H102c-1.2-8.7-8.6-15.4-17.6-15.4c-9.8,0-17.8,8-17.8,17.8S74.7,82.1,84.5,82.1z M84.5,51.4
		c7.1,0,12.9,5.8,12.9,12.9l0,0l0,0c0,7.1-5.8,12.9-12.9,12.9s-12.9-5.8-12.9-12.9S77.3,51.4,84.5,51.4z" fill="#292929" style=""></path>
	<path d="M221.2,109.5h-76.7c-1.2-8.7-8.6-15.4-17.6-15.4c-9.8,0-17.8,8-17.8,17.8s8,17.8,17.8,17.8c9,0,16.4-6.7,17.6-15.4h76.7
		c1.3,0,2.4-1.1,2.4-2.4C223.6,110.6,222.5,109.5,221.2,109.5z M126.9,124.9c-7.1,0-12.9-5.8-12.9-12.9s5.8-13,12.9-13
		s12.9,5.8,12.9,12.9l0,0l0,0C139.8,119.1,134,124.9,126.9,124.9z" fill="#292929" style=""></path>
	<path d="M221.2,140.3h-66.9c-0.8,0-1.6,0.4-2.1,1.1l-9.4,15h-41.2l-10.2-19c-0.4-0.8-1.2-1.3-2.1-1.3H67.7
		c-1.2-8.7-8.6-15.4-17.6-15.4c-9.8,0-17.8,8-17.8,17.8s8,17.8,17.8,17.8c9,0,16.4-6.7,17.6-15.4h20.1l10.2,19
		c0.4,0.8,1.2,1.3,2.1,1.3h44c0.8,0,1.6-0.4,2.1-1.1l9.4-15h65.5c1.3,0,2.4-1.1,2.4-2.4C223.6,141.4,222.5,140.3,221.2,140.3z
		 M50.1,151.6c-7.1,0-12.9-5.8-12.9-12.9s5.8-12.9,12.9-12.9S63,131.6,63,138.7l0,0l0,0C63.1,145.8,57.3,151.6,50.1,151.6z" fill="#292929" style=""></path>
	<path d="M221.2,168.6h-38.6c-0.9,0-1.7,0.5-2.1,1.2l-11.4,19.4h-58.2c-1.2-8.7-8.6-15.4-17.6-15.4c-9.8,0-17.8,8-17.8,17.8
		s8,17.8,17.8,17.8c9,0,16.4-6.7,17.6-15.4h59.6c0.9,0,1.7-0.5,2.1-1.2l11.4-19.4h37.2c1.3,0,2.4-1.1,2.4-2.4
		C223.6,169.7,222.5,168.6,221.2,168.6z M93.3,204.6c-7.1,0-12.9-5.8-12.9-12.9c0-7.1,5.8-12.9,12.9-12.9s12.9,5.8,12.9,12.9
		C106.3,198.8,100.5,204.6,93.3,204.6z" fill="#292929" style=""></path>
</g>
<desc>Created with Snap</desc><defs></defs></g><g><g transform="matrix(1.024,0,0,-1.024,0,0)"><path d="M78 359L84 295Q84 285 73 279Q63 273 56 273Q42 273 31 295Q21 318 21 337Q21 411 72 462Q124 514 203 540Q203 574 217 604Q232 635 263 635Q276 635 276 598L276 556Q308 560 323 560Q456 560 533 485Q611 411 611 298Q611 220 583 160Q555 100 507 65Q411 -5 277 -5L256 -5Q253 -34 248 -34Q201 -34 185 -21Q178 -14 177 3Q88 28 88 58Q88 68 95 73Q102 79 110 79Q119 79 177 55Q186 317 200 505Q145 486 111 448Q78 410 78 359ZM296 521Q282 521 275 520Q271 345 265 226Q260 71 258 31Q278 28 300 28Q395 28 465 98Q535 169 535 272Q535 375 468 448Q401 521 296 521ZM776 -5Q720 -5 687 37Q654 80 654 134Q654 243 700 299Q746 355 819 355Q853 355 875 336Q897 318 897 286Q897 226 846 185Q796 145 723 143Q727 104 749 75Q772 47 802 47Q832 47 856 61Q880 75 900 101Q942 156 972 226Q980 244 984 252Q989 260 994 260Q1000 260 1000 252Q1000 202 939 102Q873 -5 776 -5ZM723 167Q782 177 809 205Q837 233 837 278Q837 323 808 323Q773 323 749 274Q725 226 723 167ZM1069 -5Q1013 -5 980 37Q947 80 947 134Q947 243 993 299Q1039 355 1112 355Q1146 355 1168 336Q1190 318 1190 286Q1190 226 1139 185Q1089 145 1016 143Q1020 104 1042 75Q1065 47 1095 47Q1125 47 1149 61Q1173 75 1193 101Q1235 156 1265 226Q1273 244 1277 252Q1282 260 1287 260Q1293 260 1293 252Q1293 202 1232 102Q1166 -5 1069 -5ZM1016 167Q1075 177 1102 205Q1130 233 1130 278Q1130 323 1101 323Q1066 323 1042 274Q1018 226 1016 167ZM1318 54L1319 23Q1319 -5 1303 -5Q1279 -5 1257 1Q1235 8 1235 19Q1235 31 1240 98Q1246 166 1246 200L1246 259Q1246 307 1256 317Q1266 327 1291 346Q1317 365 1328 365Q1340 365 1343 361Q1346 357 1346 346Q1346 293 1326 246Q1321 189 1321 167Q1325 173 1363 235Q1401 297 1427 326Q1454 355 1475 355Q1496 355 1512 341Q1529 327 1529 306Q1529 262 1519 176Q1510 91 1510 68Q1510 46 1516 46Q1533 47 1563 88Q1593 130 1622 195Q1652 260 1658 260Q1665 260 1665 252Q1665 224 1636 163Q1557 -5 1503 -5Q1464 -5 1444 11Q1437 18 1437 47Q1437 77 1442 143Q1448 210 1448 243Q1448 276 1436 276Q1425 276 1376 207Q1327 139 1324 120Q1318 85 1318 54Z" fill="#292929" style=""></path></g></g><g transform="matrix(1,0,0,1,-544.7681,992.256)"><g transform="matrix(1.024,0,0,-1.024,0,0)"><path d="M291 579Q297 580 323 580Q350 580 387 570Q425 561 460 539Q496 518 517 476Q539 435 539 378Q539 284 466 226Q393 168 273 168Q273 -27 204 -27Q158 -27 158 12Q158 24 170 45Q182 66 187 93Q192 120 195 180Q154 193 154 216Q154 239 175 239Q186 239 197 236Q210 503 215 531Q158 517 120 485Q83 453 83 409Q83 384 72 370Q62 356 46 356Q16 356 16 390Q16 457 75 505Q135 554 224 571Q243 635 277 635Q291 635 291 579ZM464 350Q464 440 412 487Q361 535 288 538Q273 361 273 205Q287 203 295 203Q379 203 421 246Q464 289 464 350ZM866 217Q906 230 921 239Q937 249 945 254L957 261Q962 264 965 264Q973 264 973 255Q973 246 942 223Q911 201 865 183Q858 99 812 47Q766 -5 681 -5Q619 -5 586 44Q553 94 553 160Q553 227 592 286Q632 345 694 345Q722 365 760 365Q799 365 832 324Q865 283 866 217ZM801 166L765 164Q719 164 687 191Q655 219 655 252Q655 285 666 309Q623 275 623 175Q623 127 643 83Q663 40 706 40Q749 40 773 76Q797 113 801 166ZM739 332Q723 332 714 317Q705 303 705 286Q705 249 730 226Q756 203 790 203L802 203Q800 252 785 292Q771 332 739 332ZM1004 261L1059 267Q1067 267 1073 258Q1079 249 1079 239Q1079 229 1072 171Q1066 113 1066 79Q1066 46 1072 46Q1089 47 1119 88Q1149 130 1178 195Q1208 260 1214 260Q1221 260 1221 252Q1221 224 1192 163Q1113 -5 1059 -5Q1020 -5 1000 11Q993 18 993 98Q993 178 1010 235Q952 235 929 272Q917 291 917 315Q917 339 927 357Q937 375 955 375Q974 375 989 355Q1005 336 1005 312Q1005 288 991 264Q995 261 1004 261ZM1396 163Q1317 -5 1262 -5Q1208 -5 1198 8Q1189 21 1189 94Q1189 167 1203 305Q1153 315 1150 346Q1150 362 1171 362Q1192 362 1208 354Q1217 426 1229 500Q1232 519 1248 536Q1264 553 1279 553Q1292 553 1292 512Q1292 493 1278 337Q1305 342 1337 357Q1370 372 1376 372Q1394 372 1394 361Q1395 351 1357 333Q1319 316 1275 307Q1263 161 1263 86Q1263 46 1275 46Q1293 47 1323 88Q1353 129 1382 194Q1412 260 1418 260Q1425 260 1425 252Q1425 224 1396 163ZM1522 211Q1576 224 1612 244Q1649 264 1651 264Q1657 264 1657 254Q1657 244 1637 229Q1595 198 1532 176Q1558 77 1558 -34Q1558 -127 1537 -212Q1525 -260 1499 -290Q1474 -320 1437 -320Q1405 -320 1393 -292Q1378 -259 1376 -229Q1373 -182 1373 -76Q1373 30 1389 180Q1353 206 1353 243Q1353 281 1369 301Q1385 322 1409 328Q1423 415 1436 478Q1450 541 1478 580Q1506 620 1534 620Q1566 620 1566 549Q1566 437 1483 297Q1504 267 1522 211ZM1452 161Q1443 38 1443 -122Q1443 -281 1460 -281Q1490 -281 1510 -203Q1530 -124 1530 -27Q1530 71 1508 169Q1478 161 1452 161ZM1467 311Q1496 359 1520 424Q1544 490 1544 534Q1544 578 1535 578Q1519 578 1500 505Q1482 432 1467 311ZM1467 271L1461 261L1456 210Q1469 206 1479 206Q1490 206 1497 207Q1484 246 1467 271ZM1405 303Q1390 298 1390 280Q1390 262 1398 249Q1402 285 1405 303ZM1913 217Q1953 230 1968 239Q1984 249 1992 254L2004 261Q2009 264 2012 264Q2020 264 2020 255Q2020 246 1989 223Q1958 201 1912 183Q1905 99 1859 47Q1813 -5 1728 -5Q1666 -5 1633 44Q1600 94 1600 160Q1600 227 1639 286Q1679 345 1741 345Q1769 365 1807 365Q1846 365 1879 324Q1912 283 1913 217ZM1848 166L1812 164Q1766 164 1734 191Q1702 219 1702 252Q1702 285 1713 309Q1670 275 1670 175Q1670 127 1690 83Q1710 40 1753 40Q1796 40 1820 76Q1844 113 1848 166ZM1786 332Q1770 332 1761 317Q1752 303 1752 286Q1752 249 1777 226Q1803 203 1837 203L1849 203Q1847 252 1832 292Q1818 332 1786 332ZM2037 -5Q2015 -5 1996 0Q1978 6 1974 11Q1964 23 1964 135Q1964 248 1989 441Q2010 600 2087 600Q2105 600 2113 580Q2121 561 2121 543Q2121 413 2042 252Q2039 169 2039 107Q2039 46 2050 46Q2067 47 2097 88Q2127 130 2156 195Q2186 260 2192 260Q2199 260 2199 252Q2199 224 2170 163Q2091 -5 2037 -5ZM2096 534Q2096 566 2088 566Q2058 566 2044 317Q2096 454 2096 534ZM2176 489Q2176 507 2195 520Q2214 533 2229 533Q2256 533 2256 502Q2256 471 2240 448Q2224 426 2195 426Q2176 426 2176 489ZM2205 -5Q2166 -5 2146 11Q2139 18 2139 61Q2139 104 2145 204Q2152 305 2157 313Q2162 321 2188 343Q2214 365 2228 365Q2243 365 2243 327Q2243 317 2237 288Q2232 259 2225 246Q2212 213 2212 73Q2212 46 2218 46Q2235 47 2265 88Q2295 130 2324 195Q2354 260 2360 260Q2367 260 2367 252Q2367 224 2338 163Q2259 -5 2205 -5ZM2627 217Q2667 230 2682 239Q2698 249 2706 254L2718 261Q2723 264 2726 264Q2734 264 2734 255Q2734 246 2703 223Q2672 201 2626 183Q2619 99 2573 47Q2527 -5 2442 -5Q2380 -5 2347 44Q2314 94 2314 160Q2314 227 2353 286Q2393 345 2455 345Q2483 365 2521 365Q2560 365 2593 324Q2626 283 2627 217ZM2562 166L2526 164Q2480 164 2448 191Q2416 219 2416 252Q2416 285 2427 309Q2384 275 2384 175Q2384 127 2404 83Q2424 40 2467 40Q2510 40 2534 76Q2558 113 2562 166ZM2500 332Q2484 332 2475 317Q2466 303 2466 286Q2466 249 2491 226Q2517 203 2551 203L2563 203Q2561 252 2546 292Q2532 332 2500 332Z" fill="#292929" style=""></path></g></g></g></svg>